<svg width="26" height="26" viewBox="0 0 26 26" fill="none" xmlns="http://www.w3.org/2000/svg">
<path opacity="0.4" d="M23.8333 13C23.8333 18.983 18.9831 23.8333 13 23.8333C7.01691 23.8333 2.16666 18.983 2.16666 13C2.16666 7.01688 7.01691 2.16663 13 2.16663C18.9831 2.16663 23.8333 7.01688 23.8333 13Z" fill="#38B77F"/>
<path fill-rule="evenodd" clip-rule="evenodd" d="M13.8125 8.66663C13.8125 8.21789 13.4487 7.85413 13 7.85413C12.5513 7.85413 12.1875 8.21789 12.1875 8.66663V12.1875H8.66666C8.21793 12.1875 7.85416 12.5512 7.85416 13C7.85416 13.4487 8.21793 13.8125 8.66666 13.8125H12.1875V17.3333C12.1875 17.782 12.5513 18.1458 13 18.1458C13.4487 18.1458 13.8125 17.782 13.8125 17.3333V13.8125H17.3333C17.7821 13.8125 18.1458 13.4487 18.1458 13C18.1458 12.5512 17.7821 12.1875 17.3333 12.1875H13.8125V8.66663Z" fill="#38B77F"/>
</svg>
