<svg width="36" height="36" viewBox="0 0 36 36" fill="none" xmlns="http://www.w3.org/2000/svg">
<g opacity="0.2">
<path opacity="0.4" d="M33 27V11.4853C33 9.89398 32.3679 8.36786 31.2426 7.24264L28.7574 4.75736C27.6321 3.63214 26.106 3 24.5147 3H11.4853C9.89398 3 8.36786 3.63214 7.24264 4.75736L4.75736 7.24264C3.63214 8.36786 3 9.89398 3 11.4853V27C3 30.3137 5.68629 33 9 33H27C30.3137 33 33 30.3137 33 27Z" fill="#F8F7FA"/>
<path d="M24.5147 3H11.4852C9.89395 3 8.36783 3.63214 7.24261 4.75736L4.75732 7.24264C3.86707 8.1329 3.28547 9.27411 3.08139 10.5H32.9185C32.7145 9.27411 32.1329 8.1329 31.2426 7.24264L28.7573 4.75736C27.6321 3.63214 26.106 3 24.5147 3Z" fill="#F8F7FA"/>
<path d="M13.5 10.5H22.5V19.5L18 16.5L13.5 19.5V10.5Z" fill="#F8F7FA"/>
</g>
</svg>
