<svg width="312" height="52" viewBox="0 0 312 52" fill="none" xmlns="http://www.w3.org/2000/svg">
<rect width="312" height="52" rx="8" fill="#667EEA"/>
<path opacity="0.4" d="M29.5066 17.1672L24.8881 19.3182C23.5522 19.9403 22.6706 21.3336 22.7557 22.863C23.088 28.8418 24.7588 31.4739 29.1003 34.5539C30.2504 35.3699 31.7664 35.3719 32.9157 34.5546C37.2706 31.4578 38.8816 28.7885 39.2431 22.8837C39.3374 21.3442 38.4544 19.9361 37.1092 19.3096L32.509 17.1672C31.5533 16.7221 30.4623 16.7221 29.5066 17.1672Z" fill="#F8F7FA"/>
<path d="M30.0837 30.5833C30.0837 30.0771 30.4941 29.6667 31.0003 29.6667C31.5066 29.6667 31.917 30.0771 31.917 30.5833C31.917 31.0896 31.5066 31.5 31.0003 31.5C30.4941 31.5 30.0837 31.0896 30.0837 30.5833Z" fill="#F8F7FA"/>
<path fill-rule="evenodd" clip-rule="evenodd" d="M31 28.5209C30.6203 28.5209 30.3125 28.2131 30.3125 27.8334L30.3125 21.4167C30.3125 21.037 30.6203 20.7292 31 20.7292C31.3797 20.7292 31.6875 21.037 31.6875 21.4167L31.6875 27.8334C31.6875 28.2131 31.3797 28.5209 31 28.5209Z" fill="#F8F7FA"/>
<path d="M54.1484 26.1953C54.9961 25.7305 55.4609 24.9102 55.4609 23.8711C55.4609 22.1758 54.2031 21.1094 52.2344 21.1094H47.5586V31.5H52.3164C54.3945 31.5 55.6523 30.4062 55.6523 28.6562C55.6523 27.5078 55.1055 26.6328 54.1484 26.1953ZM51.9609 22.5859C53.1641 22.5859 53.7656 23.0508 53.7656 24.0078C53.7656 24.9922 53.1641 25.457 51.9609 25.457H49.2266V22.5859H51.9609ZM51.9883 30.0234H49.2266V26.9062H51.9883C53.2734 26.9062 53.9297 27.4258 53.9297 28.4648C53.9297 29.5039 53.2734 30.0234 51.9883 30.0234ZM64.375 30.0781C64.0195 30.0781 63.8555 29.9141 63.8555 29.5586V25.8672C63.8555 24.1719 62.6523 23.1602 60.6836 23.1602C59.2617 23.1602 58.0859 23.6523 57.1289 24.5547L58.1406 25.6211C58.7969 24.9375 59.6719 24.5273 60.6016 24.5273C61.6406 24.5273 62.3242 24.9648 62.3242 25.6211C62.3242 26.25 61.7227 26.3594 60.4922 26.5234C58.9062 26.7695 56.9648 27.207 56.9648 29.2305C56.9648 30.6523 58.0312 31.6367 59.6445 31.6367C60.8477 31.6367 61.9414 31.0898 62.5156 30.2422C62.625 31.1992 63.0898 31.5547 64.1016 31.5547C64.375 31.5547 64.5938 31.5273 64.6758 31.5V30.0781H64.375ZM59.918 30.2969C59.0703 30.2969 58.5781 29.8867 58.5781 29.1211C58.5781 28.0547 59.6445 27.8906 60.6836 27.7266C61.4766 27.5898 61.9688 27.5078 62.2695 27.3164V28.3828C62.2695 29.4219 61.1758 30.2969 59.918 30.2969ZM76.0234 23.2969V30.0508H72.9062V23.2969H71.2656V30.0508H68.1484V23.2969H66.5078V31.5H77.6641V23.2969H76.0234ZM80.2891 22.1484H82.0938V20.5078H80.2891V22.1484ZM80.3711 31.5H82.0117V23.2969H80.3711V31.5ZM96.2031 30.0508V23.2969H89.4766V26.7148C89.4766 28.3281 89.3945 29.3945 89.2305 30.0508H88.2734V33.4141H89.832V31.5H95.7383V33.4141H97.2969V30.0508H96.2031ZM90.8164 30.0508C90.9805 29.2305 91.0625 28.1094 91.0625 26.7969V24.7461H94.5898V30.0508H90.8164ZM105.637 30.0781C105.281 30.0781 105.117 29.9141 105.117 29.5586V25.8672C105.117 24.1719 103.914 23.1602 101.945 23.1602C100.523 23.1602 99.3477 23.6523 98.3906 24.5547L99.4023 25.6211C100.059 24.9375 100.934 24.5273 101.863 24.5273C102.902 24.5273 103.586 24.9648 103.586 25.6211C103.586 26.25 102.984 26.3594 101.754 26.5234C100.168 26.7695 98.2266 27.207 98.2266 29.2305C98.2266 30.6523 99.293 31.6367 100.906 31.6367C102.109 31.6367 103.203 31.0898 103.777 30.2422C103.887 31.1992 104.352 31.5547 105.363 31.5547C105.637 31.5547 105.855 31.5273 105.938 31.5V30.0781H105.637ZM101.18 30.2969C100.332 30.2969 99.8398 29.8867 99.8398 29.1211C99.8398 28.0547 100.906 27.8906 101.945 27.7266C102.738 27.5898 103.23 27.5078 103.531 27.3164V28.3828C103.531 29.4219 102.438 30.2969 101.18 30.2969ZM113.402 23.2969V26.5781H109.41V23.2969H107.77V31.5H109.41V28.0547H113.402V31.5H115.043V23.2969H113.402ZM117.668 22.1484H119.473V20.5078H117.668V22.1484ZM117.75 31.5H119.391V23.2969H117.75V31.5ZM133.746 23.2969H126.473V31.5H128.113V24.7461H132.105V31.5H133.746V23.2969ZM140.664 23.1602C139.488 23.1602 138.504 23.6797 137.848 24.582L137.738 23.2969H136.316V34.2344H137.957V30.4062C138.586 31.1992 139.543 31.6367 140.664 31.6367C142.77 31.6367 144.246 29.9141 144.246 27.3984C144.246 24.8281 142.824 23.1602 140.664 23.1602ZM140.227 30.2422C138.777 30.2422 137.848 29.1211 137.848 27.3984C137.848 25.6758 138.777 24.5547 140.227 24.5547C141.676 24.5547 142.578 25.6758 142.578 27.3984C142.578 29.1211 141.676 30.2422 140.227 30.2422ZM149.77 31.6367C152.23 31.6367 153.926 29.9141 153.926 27.3984C153.926 24.8281 152.285 23.1602 149.77 23.1602C147.309 23.1602 145.613 24.8828 145.613 27.3984C145.613 29.9688 147.254 31.6367 149.77 31.6367ZM149.77 30.2422C148.266 30.2422 147.281 29.1211 147.281 27.3984C147.281 25.6758 148.266 24.5547 149.77 24.5547C151.273 24.5547 152.258 25.6758 152.258 27.3984C152.258 29.1211 151.273 30.2422 149.77 30.2422ZM162.758 31.5L159.641 27.3164L162.621 23.2969H160.762L158.629 26.1953L156.523 23.2969H154.582L157.562 27.3164L154.418 31.5H156.332L158.574 28.4375L160.789 31.5H162.758ZM167.406 31.6367C169.867 31.6367 171.562 29.9141 171.562 27.3984C171.562 24.8281 169.922 23.1602 167.406 23.1602C164.945 23.1602 163.25 24.8828 163.25 27.3984C163.25 29.9688 164.891 31.6367 167.406 31.6367ZM167.406 30.2422C165.902 30.2422 164.918 29.1211 164.918 27.3984C164.918 25.6758 165.902 24.5547 167.406 24.5547C168.91 24.5547 169.895 25.6758 169.895 27.3984C169.895 29.1211 168.91 30.2422 167.406 30.2422ZM180.422 30.0508V23.2969H173.695V26.7148C173.695 28.3281 173.613 29.3945 173.449 30.0508H172.492V33.4141H174.051V31.5H179.957V33.4141H181.516V30.0508H180.422ZM175.035 30.0508C175.199 29.2305 175.281 28.1094 175.281 26.7969V24.7461H178.809V30.0508H175.035ZM189.473 23.2969H185.781C183.922 23.2969 182.746 24.3359 182.746 25.9219C182.746 27.0156 183.348 27.8086 184.387 28.1914L182.199 31.5H184.031L186.027 28.4102H187.832V31.5H189.473V23.2969ZM185.945 27.1797C184.961 27.1797 184.387 26.7148 184.387 25.8945C184.387 25.1289 184.961 24.6641 185.945 24.6641H187.832V27.1797H185.945ZM198.578 23.2969H191.031V24.7461H193.984V31.5H195.625V24.7461H198.578V23.2969ZM204.02 26.3867H201.777V23.2969H200.137V31.5H204.02C205.824 31.5 206.973 30.4883 206.973 28.9297C206.973 27.3711 205.852 26.3867 204.02 26.3867ZM203.855 30.1328H201.777V27.7266H203.855C204.812 27.7266 205.305 28.1641 205.305 28.9297C205.305 29.6953 204.812 30.1328 203.855 30.1328ZM220.426 23.2969H213.152V31.5H214.793V24.7461H218.785V31.5H220.426V23.2969ZM224.035 27.918H230.352C230.406 27.7266 230.406 27.5898 230.406 27.3984C230.406 24.8281 228.848 23.1602 226.441 23.1602C224.035 23.1602 222.395 24.8828 222.395 27.3984C222.395 29.832 223.871 31.6367 226.578 31.6367C228.301 31.6367 229.449 30.9805 230.133 30.1602L229.012 29.1758C228.547 29.7773 227.781 30.2422 226.578 30.2422C225.129 30.2422 224.227 29.3398 224.035 27.918ZM226.441 24.5273C227.672 24.5273 228.52 25.3203 228.738 26.6602H224.062C224.309 25.3477 225.156 24.5273 226.441 24.5273ZM236.668 23.1602C235.492 23.1602 234.508 23.6797 233.852 24.582L233.742 23.2969H232.32V34.2344H233.961V30.4062C234.59 31.1992 235.547 31.6367 236.668 31.6367C238.773 31.6367 240.25 29.9141 240.25 27.3984C240.25 24.8281 238.828 23.1602 236.668 23.1602ZM236.23 30.2422C234.781 30.2422 233.852 29.1211 233.852 27.3984C233.852 25.6758 234.781 24.5547 236.23 24.5547C237.68 24.5547 238.582 25.6758 238.582 27.3984C238.582 29.1211 237.68 30.2422 236.23 30.2422ZM243.258 27.918H249.574C249.629 27.7266 249.629 27.5898 249.629 27.3984C249.629 24.8281 248.07 23.1602 245.664 23.1602C243.258 23.1602 241.617 24.8828 241.617 27.3984C241.617 29.832 243.094 31.6367 245.801 31.6367C247.523 31.6367 248.672 30.9805 249.355 30.1602L248.234 29.1758C247.77 29.7773 247.004 30.2422 245.801 30.2422C244.352 30.2422 243.449 29.3398 243.258 27.918ZM245.664 24.5273C246.895 24.5273 247.742 25.3203 247.961 26.6602H243.285C243.531 25.3477 244.379 24.5273 245.664 24.5273ZM256.957 27.2891C257.695 26.9609 258.133 26.332 258.133 25.4297C258.133 23.9531 257.012 23.2969 255.207 23.2969H251.543V31.5H255.508C257.285 31.5 258.352 30.7344 258.352 29.2578C258.352 28.2734 257.859 27.6172 256.957 27.2891ZM253.129 24.6094H255.289C256.055 24.6094 256.52 24.9648 256.52 25.6211C256.52 26.3867 256.137 26.6875 255.207 26.6875H253.129V24.6094ZM255.344 30.1875H253.129V27.918H255.234C256.164 27.918 256.711 28.3555 256.711 29.0664C256.711 29.7773 256.219 30.1875 255.344 30.1875ZM260.43 22.1484H262.234V20.5078H260.43V22.1484ZM260.512 31.5H262.152V23.2969H260.512V31.5ZM269.207 23.1602C268.031 23.1602 267.047 23.6797 266.391 24.582L266.281 23.2969H264.859V34.2344H266.5V30.4062C267.129 31.1992 268.086 31.6367 269.207 31.6367C271.312 31.6367 272.789 29.9141 272.789 27.3984C272.789 24.8281 271.367 23.1602 269.207 23.1602ZM268.77 30.2422C267.32 30.2422 266.391 29.1211 266.391 27.3984C266.391 25.6758 267.32 24.5547 268.77 24.5547C270.219 24.5547 271.121 25.6758 271.121 27.3984C271.121 29.1211 270.219 30.2422 268.77 30.2422ZM280.336 31.5H282.332L278.75 26.5781L282.168 23.2969H280.09L276.398 26.9609V23.2969H274.758V31.5H276.398V28.8203L277.574 27.6992L280.336 31.5ZM289.469 23.2969L287.227 30.1602L284.355 23.2969H282.551L286.406 32.0469C286.105 32.5938 285.777 32.8945 285.34 32.8945C284.629 32.8945 284.438 32.3477 284.465 31.7188L282.961 31.9648C282.961 33.2227 283.672 34.3711 285.312 34.3711C286.707 34.3711 287.609 33.2773 288.129 31.8008L291.164 23.2969H289.469Z" fill="#F8F7FA"/>
</svg>
