<svg width="340" height="45" viewBox="0 0 340 45" fill="none" xmlns="http://www.w3.org/2000/svg">
<g clip-path="url(#clip0_117_4251)">
<path d="M52.0513 30.2818C56.8955 30.2818 60.4839 27.7699 61.7996 23.6433L57.4936 22.0884C56.5965 24.9591 54.6827 26.3944 51.9914 26.3944C48.1639 26.3944 45.7716 23.4041 45.7716 18.6196C45.7716 13.8351 48.2237 10.8448 51.9914 10.8448C54.6827 10.8448 56.5965 12.2802 57.4936 15.1509L61.7996 13.5959C60.4839 9.34968 56.8955 6.95744 52.0513 6.95744C45.5324 6.95744 41.1068 11.6821 41.1068 18.6196C41.1068 25.6767 45.4726 30.2818 52.0513 30.2818Z" fill="url(#paint0_linear_117_4251)"/>
<path d="M73.103 30.2818C78.6051 30.2818 82.3729 26.5738 82.3729 21.0119C82.3729 15.3901 78.7247 11.7419 73.103 11.7419C67.6008 11.7419 63.833 15.4499 63.833 21.0119C63.833 26.6336 67.4812 30.2818 73.103 30.2818ZM73.103 26.6934C70.1127 26.6934 68.2587 24.5404 68.2587 21.0119C68.2587 17.4833 70.1127 15.3303 73.103 15.3303C76.0933 15.3303 77.9473 17.4833 77.9473 21.0119C77.9473 24.5404 76.0933 26.6934 73.103 26.6934Z" fill="url(#paint1_linear_117_4251)"/>
<path d="M86.3799 9.64871H91.0448V5.82112H86.3799V9.64871ZM86.5593 29.9828H90.8654V12.0409H86.5593V29.9828Z" fill="url(#paint2_linear_117_4251)"/>
<path d="M106.535 11.7419C103.963 11.7419 101.75 12.8782 100.434 14.6724L100.195 12.0409H96.3675V29.9828H100.674V19.6961C100.674 17.1245 102.707 15.3303 105.219 15.3303C107.432 15.3303 108.747 16.8852 108.747 19.6363V29.9828H113.053V18.6196C113.053 14.493 110.362 11.7419 106.535 11.7419Z" fill="url(#paint3_linear_117_4251)"/>
<path d="M127.826 30.2818C132.67 30.2818 136.258 27.7699 137.574 23.6433L133.268 22.0884C132.371 24.9591 130.457 26.3944 127.766 26.3944C123.938 26.3944 121.546 23.4041 121.546 18.6196C121.546 13.8351 123.998 10.8448 127.766 10.8448C130.457 10.8448 132.371 12.2802 133.268 15.1509L137.574 13.5959C136.258 9.34968 132.67 6.95744 127.826 6.95744C121.307 6.95744 116.881 11.6821 116.881 18.6196C116.881 25.6767 121.247 30.2818 127.826 30.2818Z" fill="url(#paint4_linear_117_4251)"/>
<path d="M148.877 30.2818C154.379 30.2818 158.147 26.5738 158.147 21.0119C158.147 15.3901 154.499 11.7419 148.877 11.7419C143.375 11.7419 139.607 15.4499 139.607 21.0119C139.607 26.6336 143.255 30.2818 148.877 30.2818ZM148.877 26.6934C145.887 26.6934 144.033 24.5404 144.033 21.0119C144.033 17.4833 145.887 15.3303 148.877 15.3303C151.868 15.3303 153.722 17.4833 153.722 21.0119C153.722 24.5404 151.868 26.6934 148.877 26.6934Z" fill="url(#paint5_linear_117_4251)"/>
<path d="M162.035 29.9828H166.341V6.06035H162.035V29.9828Z" fill="url(#paint6_linear_117_4251)"/>
<path d="M179.558 30.2818C185.06 30.2818 188.828 26.5738 188.828 21.0119C188.828 15.3901 185.179 11.7419 179.558 11.7419C174.056 11.7419 170.288 15.4499 170.288 21.0119C170.288 26.6336 173.936 30.2818 179.558 30.2818ZM179.558 26.6934C176.567 26.6934 174.713 24.5404 174.713 21.0119C174.713 17.4833 176.567 15.3303 179.558 15.3303C182.548 15.3303 184.402 17.4833 184.402 21.0119C184.402 24.5404 182.548 26.6934 179.558 26.6934Z" fill="url(#paint7_linear_117_4251)"/>
<path d="M202.882 11.8017C200.251 11.8017 198.098 12.938 196.782 14.8518L196.543 12.0409H192.715V29.9828H197.021V20.1148C197.021 17.3039 198.935 15.8087 201.686 15.8087C202.523 15.8087 203.42 15.8685 204.317 15.9881L204.377 11.9213C203.899 11.8615 203.361 11.8017 202.882 11.8017Z" fill="url(#paint8_linear_117_4251)"/>
<path d="M207.726 9.64871H212.391V5.82112H207.726V9.64871ZM207.906 29.9828H212.212V12.0409H207.906V29.9828Z" fill="url(#paint9_linear_117_4251)"/>
<path d="M227.881 11.7419C225.309 11.7419 223.097 12.8782 221.781 14.6724L221.542 12.0409H217.714V29.9828H222.02V19.6961C222.02 17.1245 224.053 15.3303 226.565 15.3303C228.778 15.3303 230.094 16.8852 230.094 19.6363V29.9828H234.4V18.6196C234.4 14.493 231.709 11.7419 227.881 11.7419Z" fill="url(#paint10_linear_117_4251)"/>
<path d="M251.923 12.0409L251.744 14.4332C250.368 12.6988 248.275 11.7419 245.763 11.7419C241.158 11.7419 237.988 15.2107 237.988 20.4138C237.988 25.6169 241.038 29.0857 245.763 29.0857C248.215 29.0857 250.248 28.069 251.624 26.3944V27.8297C251.624 30.6406 250.189 32.674 246.54 32.674C244.268 32.674 242.653 32.076 241.158 30.82L239.125 33.8103C240.739 35.3653 243.191 36.2624 246.6 36.2624C252.401 36.2624 255.691 32.9133 255.691 27.7699L255.751 12.0409H251.923ZM247.019 25.7365C244.148 25.7365 242.354 23.7031 242.354 20.4736C242.354 17.3637 244.148 15.3303 247.019 15.3303C249.89 15.3303 251.624 17.3039 251.624 20.4736C251.624 23.7031 249.89 25.7365 247.019 25.7365Z" fill="url(#paint11_linear_117_4251)"/>
<path fill-rule="evenodd" clip-rule="evenodd" d="M23.7243 20.473C23.6044 20.9391 23.3994 21.3216 23.1595 21.7371C22.057 23.647 20.0086 24.9303 17.6639 24.9303C14.1519 24.9303 11.3049 22.0514 11.3049 18.5C11.3049 14.9486 14.1519 12.0697 17.6639 12.0697C20.0086 12.0697 22.057 13.353 23.1595 15.2629C23.4108 15.6982 23.5659 16.0627 23.7063 16.482L33.0907 9.79319C30.0694 4.3308 24.2931 0.637932 17.6639 0.637932C7.90838 0.637932 0 8.63505 0 18.5C0 28.3649 7.90838 36.3621 17.6639 36.3621C24.3533 36.3621 30.1743 32.6018 33.1724 27.0575L23.7243 20.473ZM13.4245 4.92483C12.9591 4.92483 12.4993 4.94878 12.0461 4.99552C13.7735 4.25978 15.6717 3.8531 17.6639 3.8531C22.1966 3.8531 26.243 5.95855 28.899 9.25508L25.1723 11.9252C22.8826 7.75051 18.4799 4.92483 13.4245 4.92483ZM17.6639 33.1469C15.6717 33.1469 13.7735 32.7402 12.0461 32.0045C12.4993 32.0512 12.9591 32.0752 13.4245 32.0752C18.5064 32.0752 22.9287 29.2198 25.2081 25.0091L28.9478 27.684C26.2927 31.0155 22.2244 33.1469 17.6639 33.1469ZM8.12537 18.5C8.12537 13.3305 12.1469 9.11091 17.199 8.86574C16.0309 8.3974 14.7574 8.14 13.4245 8.14C7.76635 8.14 3.17949 12.7783 3.17949 18.5C3.17949 24.2217 7.76635 28.86 13.4245 28.86C14.7574 28.86 16.0309 28.6026 17.199 28.1343C12.1469 27.8891 8.12537 23.6695 8.12537 18.5Z" fill="#8866EA"/>
<path d="M319.758 20.8574C319.758 23.8925 321.276 25.8287 323.788 25.8287C326.299 25.8287 327.869 23.8925 327.869 20.8574C327.869 17.8222 326.299 15.886 323.788 15.886C321.276 15.886 319.758 17.8222 319.758 20.8574Z" fill="#8866EA"/>
<path fill-rule="evenodd" clip-rule="evenodd" d="M267.886 1.86846C266.017 3.73691 266.017 6.74415 266.017 12.7586V24.2414C266.017 30.2559 266.017 33.2631 267.886 35.1315C269.754 37 272.762 37 278.776 37H326.621C332.635 37 335.643 37 337.511 35.1315C339.38 33.2631 339.38 30.2559 339.38 24.2414V12.7586C339.38 6.74415 339.38 3.73691 337.511 1.86846C335.643 0 332.635 0 326.621 0H278.776C272.762 0 269.754 0 267.886 1.86846ZM319.915 15.101C321.119 13.5834 322.898 12.7462 324.939 12.7462C329.021 12.7462 331.689 15.9383 331.689 20.8574C331.689 25.7241 328.916 28.9685 324.939 28.9685C322.689 28.9685 320.909 28.0266 319.706 26.4567L319.497 28.7069H316.147V7.77478H319.915V15.101ZM288.255 8.82139V16.6709H279.359V8.82139H275.33V28.7069H279.359V20.3341H288.255V28.7069H292.285V8.82139H288.255ZM307.879 13.0078V22.0086C307.879 24.2588 306.1 25.8287 303.902 25.8287C301.966 25.8287 300.815 24.4681 300.815 22.061V13.0078H297.047V22.9506C297.047 26.5614 299.402 28.9685 302.751 28.9685C305.001 28.9685 306.937 27.9743 308.089 26.4044L308.298 28.7069H311.647V13.0078H307.879Z" fill="#8866EA"/>
<path d="M44.8695 36.5781H41.725V44H43.2289V41.2656H44.8695C46.5883 41.2656 47.6234 40.3867 47.6234 38.9219C47.6234 37.4766 46.5883 36.5781 44.8695 36.5781ZM44.6937 40.0547H43.2289V37.8477H44.6937C45.6117 37.8477 46.1 38.2188 46.1 38.9609C46.1 39.6836 45.6117 40.0547 44.6937 40.0547Z" fill="#667EEA" fill-opacity="0.6"/>
<path d="M52.1156 44.0977C54.2836 44.0977 55.7679 42.5547 55.7679 40.2891C55.7679 37.9844 54.3226 36.4805 52.1156 36.4805C49.9476 36.4805 48.4828 38.0234 48.4828 40.2891C48.4828 42.5938 49.9281 44.0977 52.1156 44.0977ZM52.1156 42.7891C50.8461 42.7891 50.0062 41.8125 50.0062 40.2891C50.0062 38.7656 50.8461 37.7891 52.1156 37.7891C53.3851 37.7891 54.225 38.7656 54.225 40.2891C54.225 41.8125 53.3851 42.7891 52.1156 42.7891Z" fill="#667EEA" fill-opacity="0.6"/>
<path d="M65.3969 36.5781L63.8929 41.9688L62.3695 36.5781H60.8851L59.3617 41.9883L57.8969 36.5781H56.3734L58.5023 44H60.0648L61.6078 38.5898L63.1703 44H64.7523L66.9008 36.5781H65.3969Z" fill="#667EEA" fill-opacity="0.6"/>
<path d="M69.7133 42.6719V40.8359H72.6234V39.5469H69.7133V37.9062H73.5023V36.5781H68.2289V44H73.6V42.6719H69.7133Z" fill="#667EEA" fill-opacity="0.6"/>
<path d="M79.6742 44H81.3539L79.5375 40.9922C80.4359 40.6406 80.9633 39.918 80.9633 38.8828C80.9633 37.4375 79.9281 36.5781 78.2289 36.5781H75.0258V44H76.5101V41.207H78.0336L79.6742 44ZM76.5101 37.8477H78.1117C78.9906 37.8477 79.4398 38.2188 79.4398 38.9219C79.4398 39.625 78.9906 40.0156 78.1117 40.0156H76.5101V37.8477Z" fill="#667EEA" fill-opacity="0.6"/>
<path d="M84.2054 42.6719V40.8359H87.1156V39.5469H84.2054V37.9062H87.9945V36.5781H82.7211V44H88.0922V42.6719H84.2054Z" fill="#667EEA" fill-opacity="0.6"/>
<path d="M92.35 36.5781H89.5179V44H92.35C94.6742 44 96.0609 42.4766 96.0609 40.2891C96.0609 38.043 94.7328 36.5781 92.35 36.5781ZM92.3109 42.7305H91.0219V37.8477H92.3109C93.7367 37.8477 94.5179 38.7852 94.5179 40.2891C94.5179 41.793 93.7367 42.7305 92.3109 42.7305Z" fill="#667EEA" fill-opacity="0.6"/>
<path d="M105.573 40.2109C106.178 39.8789 106.53 39.293 106.53 38.5508C106.53 37.3398 105.631 36.5781 104.147 36.5781H100.729V44H104.205C105.748 44 106.666 43.2188 106.666 41.9688C106.666 41.1484 106.276 40.543 105.573 40.2109ZM103.912 37.8086C104.674 37.8086 105.065 38.1016 105.065 38.707C105.065 39.3125 104.674 39.6055 103.912 39.6055H102.174V37.8086H103.912ZM103.932 42.7695H102.174V40.7969H103.932C104.772 40.7969 105.182 41.1289 105.182 41.793C105.182 42.457 104.772 42.7695 103.932 42.7695Z" fill="#667EEA" fill-opacity="0.6"/>
<path d="M114.225 36.5781H112.545L110.573 39.7227L108.6 36.5781H106.901L109.811 41.0703V44H111.315V41.0703L114.225 36.5781Z" fill="#667EEA" fill-opacity="0.6"/>
<path d="M121.569 44.0977C123.737 44.0977 125.221 42.5547 125.221 40.2891C125.221 37.9844 123.776 36.4805 121.569 36.4805C119.401 36.4805 117.936 38.0234 117.936 40.2891C117.936 42.5938 119.381 44.0977 121.569 44.0977ZM121.569 42.7891C120.299 42.7891 119.459 41.8125 119.459 40.2891C119.459 38.7656 120.299 37.7891 121.569 37.7891C122.838 37.7891 123.678 38.7656 123.678 40.2891C123.678 41.8125 122.838 42.7891 121.569 42.7891Z" fill="#667EEA" fill-opacity="0.6"/>
<path d="M131.705 36.5781V41.5781L128.19 36.5781H126.745V44H128.19V38.9805L131.745 44H133.151V36.5781H131.705Z" fill="#667EEA" fill-opacity="0.6"/>
<path d="M141.569 44L138.854 40.1719L141.412 36.5781H139.752L137.975 39.0781L136.217 36.5781H134.498L137.077 40.1914L134.342 44H136.061L137.936 41.2852L139.85 44H141.569Z" fill="#667EEA" fill-opacity="0.6"/>
</g>
<defs>
<linearGradient id="paint0_linear_117_4251" x1="41.1068" y1="21.0418" x2="255.751" y2="21.0418" gradientUnits="userSpaceOnUse">
<stop stop-color="#29323C"/>
<stop offset="1" stop-color="#485563"/>
</linearGradient>
<linearGradient id="paint1_linear_117_4251" x1="41.1068" y1="21.0418" x2="255.751" y2="21.0418" gradientUnits="userSpaceOnUse">
<stop stop-color="#29323C"/>
<stop offset="1" stop-color="#485563"/>
</linearGradient>
<linearGradient id="paint2_linear_117_4251" x1="41.1068" y1="21.0418" x2="255.751" y2="21.0418" gradientUnits="userSpaceOnUse">
<stop stop-color="#29323C"/>
<stop offset="1" stop-color="#485563"/>
</linearGradient>
<linearGradient id="paint3_linear_117_4251" x1="41.1068" y1="21.0418" x2="255.751" y2="21.0418" gradientUnits="userSpaceOnUse">
<stop stop-color="#29323C"/>
<stop offset="1" stop-color="#485563"/>
</linearGradient>
<linearGradient id="paint4_linear_117_4251" x1="41.1068" y1="21.0418" x2="255.751" y2="21.0418" gradientUnits="userSpaceOnUse">
<stop stop-color="#29323C"/>
<stop offset="1" stop-color="#485563"/>
</linearGradient>
<linearGradient id="paint5_linear_117_4251" x1="41.1068" y1="21.0418" x2="255.751" y2="21.0418" gradientUnits="userSpaceOnUse">
<stop stop-color="#29323C"/>
<stop offset="1" stop-color="#485563"/>
</linearGradient>
<linearGradient id="paint6_linear_117_4251" x1="41.1068" y1="21.0418" x2="255.751" y2="21.0418" gradientUnits="userSpaceOnUse">
<stop stop-color="#29323C"/>
<stop offset="1" stop-color="#485563"/>
</linearGradient>
<linearGradient id="paint7_linear_117_4251" x1="41.1068" y1="21.0418" x2="255.751" y2="21.0418" gradientUnits="userSpaceOnUse">
<stop stop-color="#29323C"/>
<stop offset="1" stop-color="#485563"/>
</linearGradient>
<linearGradient id="paint8_linear_117_4251" x1="41.1068" y1="21.0418" x2="255.751" y2="21.0418" gradientUnits="userSpaceOnUse">
<stop stop-color="#29323C"/>
<stop offset="1" stop-color="#485563"/>
</linearGradient>
<linearGradient id="paint9_linear_117_4251" x1="41.1068" y1="21.0418" x2="255.751" y2="21.0418" gradientUnits="userSpaceOnUse">
<stop stop-color="#29323C"/>
<stop offset="1" stop-color="#485563"/>
</linearGradient>
<linearGradient id="paint10_linear_117_4251" x1="41.1068" y1="21.0418" x2="255.751" y2="21.0418" gradientUnits="userSpaceOnUse">
<stop stop-color="#29323C"/>
<stop offset="1" stop-color="#485563"/>
</linearGradient>
<linearGradient id="paint11_linear_117_4251" x1="41.1068" y1="21.0418" x2="255.751" y2="21.0418" gradientUnits="userSpaceOnUse">
<stop stop-color="#29323C"/>
<stop offset="1" stop-color="#485563"/>
</linearGradient>
<clipPath id="clip0_117_4251">
<rect width="339.379" height="44.0977" fill="white"/>
</clipPath>
</defs>
</svg>
