<svg width="67" height="67" viewBox="0 0 67 67" fill="none" xmlns="http://www.w3.org/2000/svg">
<rect width="67" height="67" rx="10" fill="#667EEA" fill-opacity="0.15"/>
<path opacity="0.4" d="M36.8027 25.5834L30.1974 25.5834L27.979 23.0389C25.8044 20.5446 28.3413 16.8164 31.5163 17.8406L32.9852 18.3145C33.3197 18.4224 33.6805 18.4224 34.0149 18.3145L35.4839 17.8406C38.6588 16.8164 41.1957 20.5446 39.0211 23.0389L36.8027 25.5834Z" fill="#667EEA"/>
<path opacity="0.4" d="M23.5001 30.6664C24.7395 26.7004 28.4125 24 32.5677 24H34.4324C38.5876 24 42.2606 26.7004 43.5 30.6664L45.4791 36.9997C47.3908 43.1171 42.8207 49.3333 36.4116 49.3333H30.5885C24.1795 49.3333 19.6093 43.1171 21.521 36.9997L23.5001 30.6664Z" fill="#667EEA"/>
<path d="M33.4996 46.1667C33.4996 44.4178 34.9174 43 36.6663 43H46.1663C47.9152 43 49.333 44.4178 49.333 46.1667C49.333 47.9156 47.9152 49.3334 46.1663 49.3334H36.6663C34.9174 49.3334 33.4996 47.9156 33.4996 46.1667Z" fill="#667EEA"/>
<path d="M33.4996 39.8334C33.4996 38.0845 34.9174 36.6667 36.6663 36.6667H45.1107H46.1663C47.9152 36.6667 49.333 38.0845 49.333 39.8334C49.333 41.5823 47.9152 43 46.1663 43H36.6663C34.9174 43 33.4996 41.5823 33.4996 39.8334Z" fill="#667EEA"/>
</svg>
