<svg width="9" height="9" viewBox="0 0 9 9" fill="none" xmlns="http://www.w3.org/2000/svg">
<path fill-rule="evenodd" clip-rule="evenodd" d="M7.28274 8.56716C7.63742 8.92184 8.21247 8.92184 8.56715 8.56716C8.92183 8.21248 8.92183 7.63743 8.56715 7.28275L5.78433 4.49992L8.56714 1.71711C8.92182 1.36243 8.92182 0.787376 8.56714 0.432695C8.21246 0.0780139 7.63741 0.0780135 7.28272 0.432695L4.49991 3.21551L1.71695 0.432536C1.36226 0.0778543 0.787212 0.0778548 0.432531 0.432536C0.0778499 0.787217 0.0778494 1.36227 0.432531 1.71695L3.2155 4.49992L0.432515 7.2829C0.0778336 7.63759 0.0778336 8.21264 0.432515 8.56732C0.787196 8.922 1.36225 8.922 1.71693 8.56732L4.49991 5.78433L7.28274 8.56716Z" fill="#F8F7FA" fill-opacity="0.6"/>
</svg>
