<svg width="40" height="41" viewBox="0 0 40 41" fill="none" xmlns="http://www.w3.org/2000/svg">
<path fill-rule="evenodd" clip-rule="evenodd" d="M20 40.5C31.0457 40.5 40 31.5457 40 20.5C40 9.4543 31.0457 0.5 20 0.5C8.9543 0.5 0 9.4543 0 20.5C0 31.5457 8.9543 40.5 20 40.5ZM23.8637 22.2629L30.4348 30.2895L27.557 32.6739L16.7065 19.4284C12.8321 22.2521 13.6368 31.1897 13.6475 31.2861L9.93827 31.6826C9.88498 31.1897 8.85109 20.7518 14.3296 16.5242L9.56522 10.7105L12.443 8.32609L21.4549 19.3212C26.603 16.7224 26.2086 9.95499 26.1873 9.64957L29.9072 9.3763C30.1523 12.693 29.0971 19.1122 23.8637 22.2629Z" fill="#667EEA"/>
</svg>
