<svg width="50" height="53" viewBox="0 0 50 53" fill="none" xmlns="http://www.w3.org/2000/svg">
<path d="M22.21 24.3165V26.457H22.2798V28.133C22.6822 28.133 23.1168 28.1492 23.5681 28.1659C24.0556 28.184 24.5627 28.2029 25.0697 28.2029C26.116 28.2727 27.1622 28.2727 28.1387 28.2029L28.1387 24.346C33.9024 24.815 36.9276 26.4877 37.3456 27.0855C36.8573 27.7839 32.8816 28.8313 25 28.8313C17.1881 28.8313 13.1427 27.7839 12.6544 27.0855C13.0808 26.4148 16.2195 24.7323 22.21 24.3165Z" fill="#00A478"/>
<path fill-rule="evenodd" clip-rule="evenodd" d="M25 52.381C38.8071 52.381 50 41.1881 50 27.381C50 13.5739 38.8071 2.38098 25 2.38098C11.1929 2.38098 0 13.5739 0 27.381C0 41.1881 11.1929 52.381 25 52.381ZM22.21 23.7371C16.0968 24.0636 11.5385 25.4419 11.5385 27.0855C11.5385 28.971 17.5369 30.5073 25 30.5073C24.0235 30.5073 23.1168 30.5073 22.21 30.4375V40.8425H28.069V30.4183C34.0414 30.0653 38.4615 28.7041 38.4615 27.0855C38.4615 25.4733 34.0758 24.1164 28.1387 23.7569V20.8705H35.6018V15.8425H14.7469V20.8006H22.21V23.7371Z" fill="#00A478"/>
</svg>
