<svg width="36" height="36" viewBox="0 0 36 36" fill="none" xmlns="http://www.w3.org/2000/svg">
<g opacity="0.2">
<path opacity="0.4" d="M27 30H9C5.68629 30 3 27.3137 3 24V21C3 12.7157 9.71573 6 18 6C26.2843 6 33 12.7157 33 21V24C33 27.3137 30.3137 30 27 30Z" fill="#F8F7FA"/>
<path fill-rule="evenodd" clip-rule="evenodd" d="M17.9999 11.625C14.3398 11.625 12.2132 13.4206 10.7957 15.6112C10.4581 16.1328 9.76164 16.282 9.24001 15.9445C8.71839 15.6069 8.56916 14.9104 8.90671 14.3888C10.6271 11.7302 13.3915 9.375 17.9999 9.375C22.6083 9.375 25.3727 11.7302 27.0931 14.3888C27.4307 14.9104 27.2814 15.6069 26.7598 15.9445C26.2382 16.282 25.5417 16.1328 25.2041 15.6112C23.7866 13.4206 21.66 11.625 17.9999 11.625Z" fill="#F8F7FA"/>
<path fill-rule="evenodd" clip-rule="evenodd" d="M23.5062 18.503C23.7841 17.9473 23.5588 17.2715 23.0031 16.9936C22.4474 16.7158 21.7716 16.941 21.4937 17.4968L17.4771 25.5301C15.2382 25.7891 13.5 27.6916 13.5 30H22.5C22.5 28.1612 21.3971 26.58 19.8168 25.8818L23.5062 18.503Z" fill="#F8F7FA"/>
</g>
</svg>
