<svg width="22" height="22" viewBox="0 0 22 22" fill="none" xmlns="http://www.w3.org/2000/svg">
<path opacity="0.4" d="M0.166656 4.49996C0.166656 2.10673 2.10676 0.166626 4.49999 0.166626H14.0199C15.1692 0.166626 16.2714 0.623172 17.084 1.43583L20.5641 4.91594C21.3768 5.7286 21.8333 6.8308 21.8333 7.98007V17.5C21.8333 19.8932 19.8932 21.8333 17.5 21.8333H4.49999C2.10676 21.8333 0.166656 19.8932 0.166656 17.5V4.49996Z" fill="#F8F7FA"/>
<path d="M5.58331 15.1666V21.8333H16.4166V15.1666C16.4166 14.0621 15.5212 13.1666 14.4166 13.1666H7.58331C6.47874 13.1666 5.58331 14.0621 5.58331 15.1666Z" fill="#F8F7FA"/>
<path fill-rule="evenodd" clip-rule="evenodd" d="M15.0625 5.58325C15.0625 6.03198 14.6987 6.39575 14.25 6.39575L7.75 6.39575C7.30127 6.39575 6.9375 6.03198 6.9375 5.58325C6.9375 5.13452 7.30127 4.77075 7.75 4.77075L14.25 4.77075C14.6987 4.77075 15.0625 5.13452 15.0625 5.58325Z" fill="#F8F7FA"/>
</svg>
