<svg width="64" height="64" viewBox="0 0 64 64" fill="none" xmlns="http://www.w3.org/2000/svg">
<path opacity="0.4" d="M0.333313 13C0.333313 6.0044 6.00437 0.333344 13 0.333344H51C57.9956 0.333344 63.6666 6.0044 63.6666 13V51C63.6666 57.9956 57.9956 63.6667 51 63.6667H13C6.00437 63.6667 0.333313 57.9956 0.333313 51V13Z" fill="#667EEA"/>
<path d="M13 63.6662H51C57.9956 63.6662 63.6666 57.9951 63.6666 50.9995V38.3329L54.3598 31.6319C49.5237 28.1499 42.9145 28.5098 38.485 32.4963L25.5149 44.1694C21.0855 48.1559 14.4763 48.5158 9.64017 45.0338L0.333313 38.3329V50.9995C0.333313 57.9951 6.00437 63.6662 13 63.6662Z" fill="#667EEA"/>
<circle cx="20.9167" cy="20.9167" r="7.91667" fill="#667EEA"/>
</svg>
