<svg width="46" height="49" viewBox="0 0 46 49" fill="none" xmlns="http://www.w3.org/2000/svg">
<path fill-rule="evenodd" clip-rule="evenodd" d="M32.8984 27.2063C32.732 27.8456 32.4478 28.3701 32.1152 28.9401C30.5863 31.5598 27.7458 33.32 24.4944 33.32C19.6243 33.32 15.6764 29.3712 15.6764 24.5C15.6764 19.6288 19.6243 15.68 24.4944 15.68C27.7458 15.68 30.5863 17.4402 32.1152 20.0599C32.4636 20.6569 32.6787 21.1569 32.8734 21.732L45.8867 12.5576C41.697 5.06521 33.6871 0 24.4944 0C10.9665 0 0 10.969 0 24.5C0 38.031 10.9665 49 24.4944 49C33.7706 49 41.8425 43.8423 46 36.2376L32.8984 27.2063ZM18.6157 5.88C17.9703 5.88 17.3326 5.91285 16.7042 5.97697C19.0997 4.96781 21.7319 4.41 24.4944 4.41C30.7799 4.41 36.3911 7.29788 40.074 11.8195L34.9063 15.4819C31.7311 9.75577 25.6259 5.88 18.6157 5.88ZM24.4944 44.59C21.7319 44.59 19.0997 44.0322 16.7042 43.023C17.3326 43.0872 17.9703 43.12 18.6157 43.12C25.6627 43.12 31.7951 39.2035 34.9559 33.428L40.1417 37.097C36.46 41.6665 30.8185 44.59 24.4944 44.59ZM11.2674 24.5C11.2674 17.4095 16.8441 11.6217 23.8497 11.2854C22.23 10.6431 20.4641 10.29 18.6157 10.29C10.7696 10.29 4.40899 16.652 4.40899 24.5C4.40899 32.348 10.7696 38.71 18.6157 38.71C20.4641 38.71 22.23 38.3569 23.8497 37.7146C16.8441 37.3783 11.2674 31.5905 11.2674 24.5Z" fill="url(#paint0_linear_131_128)"/>
<defs>
<linearGradient id="paint0_linear_131_128" x1="-10" y1="24" x2="60" y2="17" gradientUnits="userSpaceOnUse">
<stop stop-color="#FDFCFB"/>
<stop offset="1" stop-color="#D1C3E2" stop-opacity="0.53"/>
</linearGradient>
</defs>
</svg>
