<svg width="24" height="21" viewBox="0 0 24 21" fill="none" xmlns="http://www.w3.org/2000/svg">
<path fill-rule="evenodd" clip-rule="evenodd" d="M20.3376 12.1793C19.9959 12.521 19.9959 13.075 20.3376 13.4167C20.6793 13.7584 21.2333 13.7584 21.575 13.4167L23.0834 11.9084C23.8807 11.111 23.8807 9.81833 23.0834 9.02101L21.575 7.51263C21.2333 7.17092 20.6793 7.17092 20.3376 7.51263C19.9959 7.85434 19.9959 8.40836 20.3376 8.75007L21.1772 9.58968H14.0417C13.5585 9.58968 13.1667 9.98143 13.1667 10.4647C13.1667 10.9479 13.5585 11.3397 14.0417 11.3397H21.1772L20.3376 12.1793Z" fill="#667EEA"/>
<path fill-rule="evenodd" clip-rule="evenodd" d="M5.875 20.7083H14.3333C17.3939 20.7083 19.875 18.2272 19.875 15.1667C19.875 14.6834 19.4832 14.2917 19 14.2917C18.5167 14.2917 18.125 14.6834 18.125 15.1667C18.125 17.2607 16.4274 18.9583 14.3333 18.9583H9.91648C8.90551 20.0355 7.46883 20.7083 5.875 20.7083ZM9.91648 2.04167H14.3333C16.4274 2.04167 18.125 3.73925 18.125 5.83333C18.125 6.31658 18.5167 6.70833 19 6.70833C19.4832 6.70833 19.875 6.31658 19.875 5.83333C19.875 2.77276 17.3939 0.291668 14.3333 0.291668H5.875C7.46883 0.291668 8.90551 0.96452 9.91648 2.04167Z" fill="#667EEA"/>
<path opacity="0.4" fill-rule="evenodd" clip-rule="evenodd" d="M0.333374 5.83333C0.333374 2.77276 2.81446 0.291668 5.87504 0.291668C8.93562 0.291668 11.4167 2.77276 11.4167 5.83333V15.1667C11.4167 18.2272 8.93562 20.7083 5.87504 20.7083C2.81446 20.7083 0.333374 18.2272 0.333374 15.1667V5.83333Z" fill="#667EEA"/>
</svg>
