<svg width="26" height="24" viewBox="0 0 26 24" fill="none" xmlns="http://www.w3.org/2000/svg">
<path opacity="0.4" d="M0.5 5.75C0.5 2.98858 2.73858 0.75 5.5 0.75H20.5C23.2614 0.75 25.5 2.98858 25.5 5.75V18.25C25.5 21.0114 23.2614 23.25 20.5 23.25H5.5C2.73858 23.25 0.5 21.0114 0.5 18.25V5.75Z" fill="#667EEA"/>
<path fill-rule="evenodd" clip-rule="evenodd" d="M4.72005 6.48007C5.00726 6.04926 5.58932 5.93285 6.02013 6.22005L10.7466 9.37105C12.1112 10.2808 13.889 10.2808 15.2536 9.37105L19.9801 6.22005C20.4109 5.93285 20.9929 6.04926 21.2801 6.48007C21.5674 6.91088 21.4509 7.49294 21.0201 7.78015L16.2936 10.9311C14.2992 12.2607 11.701 12.2607 9.70657 10.9311L4.98007 7.78015C4.54926 7.49294 4.43285 6.91088 4.72005 6.48007Z" fill="#667EEA"/>
</svg>
