<svg width="401" height="354" viewBox="0 0 401 354" fill="none" xmlns="http://www.w3.org/2000/svg">
<g opacity="0.6" clip-path="url(#clip0_64_6706)">
<path d="M200.5 354C310.957 354 400.5 302.393 400.5 238.731C400.5 175.07 310.957 123.463 200.5 123.463C90.043 123.463 0.5 175.07 0.5 238.731C0.5 302.393 90.043 354 200.5 354Z" fill="#F3EFF5"/>
<path d="M255.691 287.68L173.396 240.163L267.462 185.872L349.768 233.378L255.691 287.68Z" fill="#E0E0E0"/>
<path d="M31.6038 272.973L137.746 334.246L226.773 282.872L120.642 221.611L31.6038 272.973Z" fill="#E0E0E0"/>
<path d="M343.068 41.2563L282.292 6.22778C281.003 5.48482 279.833 5.40833 278.992 5.9C278.205 6.34796 275.407 7.97593 274.62 8.42389C273.768 8.90463 273.243 9.95352 273.243 11.4504V177.699C273.243 180.682 275.331 184.299 277.921 185.784L338.686 220.813C339.975 221.556 341.145 221.632 341.986 221.141C342.773 220.693 345.593 219.065 346.38 218.606C347.221 218.114 347.735 217.076 347.735 215.59V49.3415C347.735 46.3587 345.648 42.7422 343.068 41.2563Z" fill="#263238"/>
<path d="M286.38 180.573L281.997 183.097V196.929C281.997 197.672 282.522 198.579 283.167 198.95L285.21 200.13C285.855 200.502 286.904 200.502 287.549 200.13L289.593 198.95C290.238 198.579 290.959 197.705 291.199 197.005L295.145 185.631L286.38 180.573Z" fill="#263238"/>
<path d="M281.997 196.929C281.997 197.672 282.522 198.579 283.167 198.95L285.21 200.13C285.855 200.502 286.577 200.239 286.817 199.529L290.762 188.155L281.997 183.097V196.929Z" fill="#37474F"/>
<path d="M330.205 205.812L325.822 208.336V222.168C325.822 222.911 326.347 223.818 326.992 224.189L329.035 225.369C329.68 225.741 330.729 225.741 331.374 225.369L333.418 224.189C334.063 223.818 334.784 222.944 335.025 222.244L338.97 210.87L330.205 205.812Z" fill="#263238"/>
<path d="M325.822 222.168C325.822 222.911 326.347 223.818 326.992 224.189L329.035 225.369C329.68 225.741 330.402 225.478 330.642 224.768L334.587 213.394L325.822 208.336V222.168Z" fill="#37474F"/>
<path d="M278.216 8.83907L338.981 43.8676C341.56 45.3535 343.648 48.9809 343.648 51.9528V218.202C343.648 219.688 343.123 220.736 342.281 221.228C341.44 221.72 340.27 221.643 338.981 220.9L278.216 185.872C275.637 184.386 273.549 180.759 273.549 177.787V11.5378C273.549 10.0409 274.074 8.99203 274.926 8.51129C275.768 8.03055 276.937 8.10703 278.216 8.85V8.83907Z" fill="#37474F"/>
<path d="M189.975 236.164L255.713 274.099L347.724 220.988L343.342 218.453L277.615 180.518L189.975 231.105V236.164Z" fill="#455A64"/>
<path d="M255.713 274.099V269.04L347.724 215.929V220.988L255.713 274.099Z" fill="#263238"/>
<path d="M255.79 266.505C268.085 247.909 267.396 215.044 266.347 209.494C266.347 209.494 271.538 244.238 277.921 254.17" stroke="#FAFAFA" stroke-width="0.74" stroke-miterlimit="10"/>
<path d="M268.533 222.124C270.642 232.252 294.62 239.409 294.62 239.409" stroke="#FAFAFA" stroke-width="0.74" stroke-miterlimit="10"/>
<path d="M266.172 232.198C266.85 230.548 270.183 230.329 270.817 232.995C270.817 232.995 271.2 228.079 273.976 229.466" stroke="#FAFAFA" stroke-width="0.74" stroke-miterlimit="10"/>
<path d="M265.221 239.409C266.456 236.765 271.003 235.312 273.003 241.583C273.003 241.583 273.309 230.362 280.73 233.738" stroke="#FAFAFA" stroke-width="0.74" stroke-miterlimit="10"/>
<path d="M263.101 249.341C265.702 244.336 272.839 242.337 274.675 246.948C274.719 241.244 281.243 234.066 289.21 237.519" stroke="#FAFAFA" stroke-width="0.74" stroke-miterlimit="10"/>
<path d="M258.697 261.392C261.746 255.841 269.243 245.833 275.768 249.865" stroke="#FAFAFA" stroke-width="0.74" stroke-miterlimit="10"/>
<path d="M338.959 165.342L338.97 170.401L255.702 218.453L189.975 180.518V175.459L273.232 127.407L338.959 165.342Z" fill="#263238"/>
<path d="M338.959 165.342L255.713 213.394L189.975 175.459L273.232 127.407L338.959 165.342Z" fill="#455A64"/>
<path d="M338.959 109.696L338.97 114.755L255.702 162.818L189.975 124.872V119.814L273.232 71.7615L338.959 109.696Z" fill="#263238"/>
<path d="M338.959 109.696L255.713 157.749L189.975 119.814L273.232 71.7615L338.959 109.696Z" fill="#455A64"/>
<path d="M255.429 91.7778L194.664 56.7493C193.374 56.0063 192.205 55.9298 191.363 56.4215C190.576 56.8694 187.779 58.4974 186.992 58.9454C186.139 59.4261 185.615 60.475 185.615 61.9719V228.221C185.615 231.204 187.702 234.82 190.292 236.306L251.057 271.334C252.347 272.077 253.516 272.154 254.358 271.662C255.145 271.214 257.964 269.586 258.751 269.127C259.593 268.636 260.107 267.598 260.107 266.112V99.863C260.107 96.8802 258.019 93.2637 255.44 91.7778H255.429Z" fill="#263238"/>
<path opacity="0.2" d="M255.702 117.29L260.096 114.766V99.5789L255.691 102.114L255.702 117.29Z" fill="black"/>
<path opacity="0.2" d="M343.363 66.7137L347.746 64.1789V49.0028L343.342 51.5376L343.363 66.7137Z" fill="black"/>
<path d="M198.74 231.105L194.358 233.629V247.461C194.358 248.204 194.882 249.111 195.527 249.483L197.571 250.663C198.216 251.034 199.265 251.034 199.91 250.663L201.954 249.483C202.598 249.111 203.32 248.237 203.56 247.538L207.505 236.164L198.74 231.105Z" fill="#263238"/>
<path d="M194.358 247.461C194.358 248.204 194.882 249.111 195.527 249.483L197.571 250.663C198.216 251.034 198.937 250.772 199.178 250.062L203.123 238.688L194.358 233.629V247.461Z" fill="#37474F"/>
<path d="M242.566 256.344L238.183 258.868V272.7C238.183 273.443 238.708 274.35 239.353 274.721L241.396 275.901C242.041 276.273 243.09 276.273 243.735 275.901L245.779 274.721C246.424 274.35 247.145 273.476 247.385 272.777L251.331 261.403L242.566 256.344Z" fill="#263238"/>
<path d="M238.183 272.7C238.183 273.443 238.708 274.35 239.353 274.721L241.396 275.901C242.041 276.273 242.762 276.011 243.003 275.301L246.948 263.927L238.183 258.868V272.7Z" fill="#37474F"/>
<path d="M190.27 59.2841L251.036 94.3126C253.615 95.7985 255.702 99.4259 255.702 102.398V268.647C255.702 270.133 255.702 274.088 255.702 274.088C255.702 274.088 252.325 272.088 251.025 271.345L190.26 236.317C187.68 234.831 185.593 231.204 185.593 228.232V61.9828C185.593 60.4859 186.117 59.437 186.97 58.9563C187.811 58.4755 188.981 58.552 190.26 59.295L190.27 59.2841Z" fill="#37474F"/>
<path opacity="0.2" d="M251.036 94.3126L190.27 59.2841C188.992 58.5411 187.822 58.4646 186.981 58.9454C186.128 59.4261 185.604 60.475 185.604 61.9718V76.8092L255.713 117.279V102.387C255.713 99.4041 253.626 95.7876 251.046 94.3017L251.036 94.3126Z" fill="black"/>
<path d="M286.38 86.9376L334.576 59.1202L334.587 109.696" stroke="#FAFAFA" stroke-width="0.74" stroke-linecap="round" stroke-linejoin="round"/>
<path d="M325.822 97.055L334.576 59.1202L317.057 89.4724" stroke="#FAFAFA" stroke-width="0.74" stroke-linecap="round" stroke-linejoin="round"/>
<path d="M334.576 59.1202L308.292 84.4028" stroke="#FAFAFA" stroke-width="0.74" stroke-linecap="round" stroke-linejoin="round"/>
<path d="M334.587 101.633C334.598 94.542 326.5 94.1487 326.5 94.1487C326.992 91.9963 326.456 88.5546 323.844 86.3148C321.232 84.0859 319.462 85.3096 318.937 86.2165C318.937 86.2165 319.484 79.6937 313.844 79.0709C313.844 79.0709 317.582 72.1767 313.844 71.0841" stroke="#FAFAFA" stroke-width="0.74" stroke-linecap="round" stroke-linejoin="round"/>
<path d="M334.576 90.7289C334.292 87.1015 331.516 82.4798 328.664 84.7087C328.664 84.7087 329.418 76.7874 323.768 77.8254C323.768 77.8254 326.413 70.4831 320.861 72.2968C320.861 72.2968 324.861 67.2381 321.757 66.5061" stroke="#FAFAFA" stroke-width="0.74" stroke-linecap="round" stroke-linejoin="round"/>
<path d="M358.128 41.4202C358.128 40.4478 357.495 39.4644 356.205 38.7215L291.046 1.11444C288.467 -0.371482 284.281 -0.371482 281.702 1.11444L181.495 58.9563C180.205 59.6993 179.56 60.6826 179.571 61.655C179.571 62.5619 179.571 65.8069 179.571 66.7137C179.571 67.6861 180.205 68.6694 181.495 69.4124L246.642 107.019C249.221 108.505 253.407 108.505 255.986 107.019L356.194 49.1776C357.484 48.4346 358.128 47.4513 358.117 46.4789C358.117 45.572 358.117 42.327 358.117 41.4202H358.128Z" fill="#37474F"/>
<path d="M246.653 101.95L181.505 64.3428C178.926 62.8568 178.926 60.4422 181.505 58.9454L281.713 1.11444C284.292 -0.371482 288.478 -0.371482 291.057 1.11444L356.205 38.7215C358.784 40.2074 358.784 42.622 356.205 44.1189L255.997 101.961C253.418 103.447 249.232 103.447 246.653 101.961V101.95Z" fill="#455A64"/>
<path opacity="0.1" d="M343.342 56.5854L312.675 94.5202L260.096 124.883L260.085 104.638L343.342 56.5854Z" fill="black"/>
<path opacity="0.1" d="M338.97 114.755L312.675 150.166L260.096 180.518V160.283L338.97 114.755Z" fill="black"/>
<path opacity="0.1" d="M338.97 170.401L312.675 205.812L260.096 236.164V215.918L338.97 170.401Z" fill="black"/>
<path d="M218.347 280.916L137.735 327.45L46.959 274.929L127.571 228.406L218.347 280.916Z" fill="#667EEA"/>
<path opacity="0.5" d="M218.347 280.916L137.735 327.45L46.959 274.929L127.571 228.406L218.347 280.916Z" fill="black"/>
<path d="M127.571 165.331V228.407L46.959 274.929V211.865L127.571 165.331Z" fill="#667EEA"/>
<path opacity="0.23" d="M127.571 165.331V228.407L46.959 274.929V211.865L127.571 165.331Z" fill="black"/>
<path d="M137.735 264.375V327.45L46.959 274.929V211.865L137.735 264.375Z" fill="#667EEA"/>
<path opacity="0.38" d="M137.735 264.375V327.45L46.959 274.929V211.865L137.735 264.375Z" fill="black"/>
<path d="M218.347 217.841V280.916L127.571 228.407V165.331L218.347 217.841Z" fill="#667EEA"/>
<path opacity="0.4" d="M218.347 217.841V280.916L127.571 228.407V165.331L218.347 217.841Z" fill="black"/>
<path d="M218.347 280.916V217.841L137.735 264.375V327.45L218.347 280.916Z" fill="#667EEA"/>
<path opacity="0.23" d="M218.347 280.916V217.841L137.735 264.375V327.45L218.347 280.916Z" fill="black"/>
<path d="M127.571 165.331L127.691 130.412L218.238 182.987L218.347 217.841L127.571 165.331Z" fill="#667EEA"/>
<path opacity="0.2" d="M127.571 165.331L127.691 130.412L218.238 182.987L218.347 217.841L127.571 165.331Z" fill="black"/>
<path d="M137.735 264.375L145.298 233.826L225.178 187.718L218.347 217.841L137.735 264.375Z" fill="#667EEA"/>
<path opacity="0.3" d="M137.735 264.375L145.298 233.826L225.178 187.718L218.347 217.841L137.735 264.375Z" fill="black"/>
<path d="M46.959 211.865L37.3415 180.179L117.954 133.646L127.571 165.331L46.959 211.865Z" fill="#667EEA"/>
<path opacity="0.1" d="M46.959 211.865L37.3415 180.179L117.954 133.646L127.571 165.331L46.959 211.865Z" fill="black"/>
<path d="M46.959 211.865L27.9973 185.675L118.784 238.185L137.735 264.375L46.959 211.865Z" fill="#667EEA"/>
<path opacity="0.45" d="M46.959 211.865L27.9973 185.675L118.784 238.185L137.735 264.375L46.959 211.865Z" fill="black"/>
<g opacity="0.7">
<path d="M161.473 308.69C161.199 308.69 160.981 308.472 160.981 308.199V297.098C160.981 296.825 161.199 296.606 161.473 296.606C161.746 296.606 161.964 296.825 161.964 297.098V308.199C161.964 308.472 161.746 308.69 161.473 308.69Z" fill="white"/>
<path d="M160.019 300.933C159.954 300.933 159.888 300.922 159.822 300.889C159.571 300.78 159.451 300.485 159.56 300.234L161.32 296.158L163.287 298.431C163.462 298.638 163.44 298.955 163.232 299.13C163.025 299.305 162.708 299.283 162.533 299.075L161.593 297.994L160.456 300.616C160.38 300.802 160.194 300.911 159.997 300.911L160.019 300.933Z" fill="white"/>
<path d="M166.052 306.079C165.779 306.079 165.56 305.86 165.56 305.587V294.486C165.56 294.213 165.779 293.995 166.052 293.995C166.325 293.995 166.544 294.213 166.544 294.486V305.587C166.544 305.86 166.325 306.079 166.052 306.079Z" fill="white"/>
<path d="M164.609 298.322C164.544 298.322 164.478 298.311 164.413 298.278C164.161 298.169 164.041 297.874 164.15 297.622L165.91 293.558L167.877 295.83C168.052 296.038 168.03 296.355 167.822 296.53C167.615 296.704 167.309 296.683 167.123 296.486L166.183 295.404L165.046 298.027C164.97 298.212 164.784 298.322 164.587 298.322H164.609Z" fill="white"/>
</g>
<g opacity="0.7">
<path d="M148.26 316.218C148.063 316.218 147.877 316.174 147.713 316.076C147.331 315.858 147.123 315.431 147.123 314.885V313.53C147.123 313.257 147.342 313.039 147.615 313.039C147.888 313.039 148.107 313.257 148.107 313.53V314.885C148.107 315.093 148.161 315.191 148.205 315.213C148.238 315.235 148.358 315.224 148.533 315.126C148.97 314.874 149.451 313.891 149.451 312.886V307.204C149.451 306.931 149.669 306.713 149.943 306.713C150.216 306.713 150.434 306.931 150.434 307.204V312.886C150.434 314.175 149.833 315.508 149.025 315.978C148.762 316.131 148.5 316.207 148.249 316.207L148.26 316.218Z" fill="white"/>
<path d="M143.046 311.64V310.788C143.046 306.756 145.888 301.829 149.385 299.818C151.178 298.791 152.883 298.638 154.183 299.392C155.495 300.146 156.216 301.698 156.216 303.763V304.047L143.046 311.651V311.64ZM152.347 299.895C151.604 299.895 150.762 300.157 149.877 300.66C146.904 302.375 144.445 306.363 144.085 309.892L155.221 303.468C155.167 301.916 154.62 300.78 153.691 300.234C153.298 300.004 152.85 299.895 152.347 299.895Z" fill="white"/>
</g>
<path opacity="0.7" d="M27.9973 185.675L118.784 238.185L137.735 264.375L117.768 239.103L27.9973 185.675Z" fill="white"/>
<path opacity="0.7" d="M218.347 217.841L137.735 264.375V327.45L139.243 265.642L218.347 217.841Z" fill="white"/>
<path d="M100.052 192.613C108.369 191.411 115.965 186.079 120.784 179.316C123.025 176.17 124.73 172.641 125.702 168.893C126.587 165.451 127.09 161.594 126.205 158.098C124.697 152.111 119.145 148.56 113.276 147.806C110.314 147.424 107.254 147.708 104.424 148.68C101.418 149.718 98.959 151.608 97.1011 154.198C96.1394 155.541 95.1339 157.202 95.0793 158.907C95.0356 160.393 96.1066 161.452 97.5274 161.693C99.2432 161.988 101.057 161.256 102.533 160.425C104.347 159.409 105.899 158.076 107.199 156.448C109.844 153.127 112.107 149.073 113.254 144.976C114.249 141.425 114.03 137.557 113.276 133.985C112.5 130.335 110.992 126.61 108.314 123.933C105.516 121.125 101.527 119.737 97.6804 119.235C93.7787 118.721 89.6694 119.071 85.9317 120.36C84.3252 120.917 82.664 121.66 81.4181 122.818C80.4782 123.692 79.4071 125.146 79.7896 126.555C80.2159 128.128 82.2487 128.609 83.6585 128.423C85.7131 128.161 87.6804 126.883 89.1339 125.462C90.7405 123.9 92.1831 121.988 93.2541 120.01C94.041 118.557 94.5219 116.94 94.4891 115.269C94.347 108.331 86.6968 103.851 80.6858 102.594C79.0574 102.256 77.4181 102.146 75.7569 102.267C75.1995 102.31 75.5383 103.184 75.9864 103.152C79.1339 102.911 82.3907 103.862 85.1776 105.26C87.888 106.615 90.4782 108.615 91.9645 111.302C93.4618 114.012 93.2978 117.126 91.7131 119.759C90.6312 121.562 89.3197 123.386 87.7569 124.807C86.4563 125.987 84.5 127.353 82.6421 127.221C82.0957 127.178 81.4071 126.926 81.1995 126.315C80.959 125.604 81.4946 124.763 81.8552 124.326C82.7405 123.223 84.0957 122.567 85.3853 121.988C88.5875 120.568 92.2815 120.109 95.7569 120.284C99.3306 120.469 103.057 121.387 105.965 123.572C108.697 125.615 110.303 128.795 111.276 131.996C112.281 135.307 112.697 138.934 112.238 142.376C111.757 145.883 110.085 149.237 108.271 152.231C106.249 155.563 103.713 158.754 99.9099 160.098C98.97 160.425 97.0028 160.928 96.6312 159.551C96.2596 158.207 97.3306 156.514 98.0301 155.454C99.6039 153.05 101.724 151.182 104.391 150.089C106.893 149.062 109.669 148.68 112.358 148.888C117.505 149.281 122.73 151.969 124.522 157.082C125.571 160.076 125.363 163.408 124.795 166.478C124.172 169.876 122.915 173.154 121.178 176.137C117.462 182.539 111.659 187.347 104.904 190.275C103.287 190.974 101.604 191.564 99.9317 192.121C99.7569 192.176 99.8334 192.613 100.03 192.591L100.052 192.613Z" fill="#E0E0E0"/>
<path d="M65.3088 97.7543C60.8825 97.4483 54.9153 100.879 57.0574 103.392C59.1995 105.905 64.8935 101.841 64.8935 101.841C64.8935 101.841 64.3579 106.921 66.2159 107.5C68.0738 108.079 70.5328 103.239 68.7295 100.136C68.7295 100.136 71.5273 101.371 74.1612 99.4259C76.7951 97.4811 73.9973 95.6565 70.2705 95.9733C70.2705 95.9733 72.9372 87.2545 67.5492 88.9043C64.8825 89.7128 63.9317 92.8813 65.3088 97.7543Z" fill="#27DEBF"/>
<path opacity="0.65" d="M65.3088 97.7543C60.8825 97.4483 54.9153 100.879 57.0574 103.392C59.1995 105.905 64.8935 101.841 64.8935 101.841C64.8935 101.841 64.3579 106.921 66.2159 107.5C68.0738 108.079 70.5328 103.239 68.7295 100.136C68.7295 100.136 71.5273 101.371 74.1612 99.4259C76.7951 97.4811 73.9973 95.6565 70.2705 95.9733C70.2705 95.9733 72.9372 87.2545 67.5492 88.9043C64.8825 89.7128 63.9317 92.8813 65.3088 97.7543Z" fill="white"/>
<path d="M69.3744 99.6117C69.1339 99.3713 68.8716 99.1528 68.6093 98.9452C68.2268 98.6502 67.8224 98.3661 67.4399 98.082C67.0683 97.8089 66.6749 97.5685 66.2705 97.35C66.041 97.2189 65.8006 97.0987 65.5492 97.0004C65.1667 96.8365 64.8388 96.7709 64.4345 96.8256C64.0519 96.8693 63.7022 97.3172 63.9973 97.6778C64.3361 98.1148 64.7623 98.2022 65.1448 98.3989C65.3416 98.4972 65.5383 98.6065 65.735 98.7267C66.1394 98.967 66.5 99.2402 66.8716 99.5133C67.2432 99.7865 67.6257 100.049 67.9973 100.322C68.5765 100.77 69.1667 101.207 69.8662 101.458C69.9317 101.48 70.0082 101.458 70.0629 101.425C70.5219 100.977 69.7131 99.9504 69.3853 99.6226L69.3744 99.6117Z" fill="#455A64"/>
</g>
<defs>
<clipPath id="clip0_64_6706">
<rect width="400" height="354" fill="white" transform="translate(0.5)"/>
</clipPath>
</defs>
</svg>
