<svg width="36" height="36" viewBox="0 0 36 36" fill="none" xmlns="http://www.w3.org/2000/svg">
<path fill-rule="evenodd" clip-rule="evenodd" d="M24 1.875C24.6213 1.875 25.125 2.37868 25.125 3V7.5C25.125 8.12132 24.6213 8.625 24 8.625C23.3787 8.625 22.875 8.12132 22.875 7.5V3C22.875 2.37868 23.3787 1.875 24 1.875Z" fill="#667EEA"/>
<path fill-rule="evenodd" clip-rule="evenodd" d="M12 1.875C12.6213 1.875 13.125 2.37868 13.125 3V7.5C13.125 8.12132 12.6213 8.625 12 8.625C11.3787 8.625 10.875 8.12132 10.875 7.5V3C10.875 2.37868 11.3787 1.875 12 1.875Z" fill="#667EEA"/>
<path opacity="0.4" d="M4.5 11.25C4.5 7.93629 7.18629 5.25 10.5 5.25H25.5C28.8137 5.25 31.5 7.93629 31.5 11.25V27C31.5 30.3137 28.8137 33 25.5 33H10.5C7.18629 33 4.5 30.3137 4.5 27V11.25Z" fill="#667EEA"/>
<path fill-rule="evenodd" clip-rule="evenodd" d="M26.625 19.5C26.625 20.1213 26.1213 20.625 25.5 20.625H16.5C15.8787 20.625 15.375 20.1213 15.375 19.5C15.375 18.8787 15.8787 18.375 16.5 18.375H25.5C26.1213 18.375 26.625 18.8787 26.625 19.5Z" fill="#667EEA"/>
<path fill-rule="evenodd" clip-rule="evenodd" d="M26.625 13.5C26.625 14.1213 26.1213 14.625 25.5 14.625H16.5C15.8787 14.625 15.375 14.1213 15.375 13.5C15.375 12.8787 15.8787 12.375 16.5 12.375H25.5C26.1213 12.375 26.625 12.8787 26.625 13.5Z" fill="#667EEA"/>
<path fill-rule="evenodd" clip-rule="evenodd" d="M26.625 25.5C26.625 26.1213 26.1213 26.625 25.5 26.625H16.5C15.8787 26.625 15.375 26.1213 15.375 25.5C15.375 24.8787 15.8787 24.375 16.5 24.375H25.5C26.1213 24.375 26.625 24.8787 26.625 25.5Z" fill="#667EEA"/>
<path d="M12.75 13.5C12.75 14.3284 12.0784 15 11.25 15C10.4216 15 9.75 14.3284 9.75 13.5C9.75 12.6716 10.4216 12 11.25 12C12.0784 12 12.75 12.6716 12.75 13.5Z" fill="#667EEA"/>
<path d="M12.75 19.5C12.75 20.3284 12.0784 21 11.25 21C10.4216 21 9.75 20.3284 9.75 19.5C9.75 18.6716 10.4216 18 11.25 18C12.0784 18 12.75 18.6716 12.75 19.5Z" fill="#667EEA"/>
<path d="M12.75 25.5C12.75 26.3284 12.0784 27 11.25 27C10.4216 27 9.75 26.3284 9.75 25.5C9.75 24.6716 10.4216 24 11.25 24C12.0784 24 12.75 24.6716 12.75 25.5Z" fill="#667EEA"/>
</svg>
