<svg width="92" height="93" viewBox="0 0 92 93" fill="none" xmlns="http://www.w3.org/2000/svg">
<path fill-rule="evenodd" clip-rule="evenodd" d="M46 92.5C71.4051 92.5 92 71.9051 92 46.5C92 21.0949 71.4051 0.5 46 0.5C20.5949 0.5 0 21.0949 0 46.5C0 71.9051 20.5949 92.5 46 92.5ZM54.8866 50.5546L70 69.0158L63.381 74.5L38.4249 44.0352C29.5138 50.5299 31.3647 71.0863 31.3892 71.3081L22.858 72.2201C22.7354 71.0863 20.3575 47.0792 32.9581 37.3556L22 23.9842L28.619 18.5L49.3463 43.7887C61.1869 37.8116 60.2799 22.2465 60.2309 21.544L68.7865 20.9155C69.3504 28.544 66.9234 43.3081 54.8866 50.5546Z" fill="#667EEA"/>
</svg>
