<svg width="42" height="43" viewBox="0 0 42 43" fill="none" xmlns="http://www.w3.org/2000/svg">
<rect y="0.208332" width="42" height="42.5833" rx="8" fill="#667EEA" fill-opacity="0.15"/>
<path opacity="0.4" fill-rule="evenodd" clip-rule="evenodd" d="M21 12.5C21.5523 12.5 22 12.9477 22 13.5V29.5C22 30.0523 21.5523 30.5 21 30.5C20.4477 30.5 20 30.0523 20 29.5V13.5C20 12.9477 20.4477 12.5 21 12.5Z" fill="#667EEA"/>
<path fill-rule="evenodd" clip-rule="evenodd" d="M30 21.5C30 22.0523 29.5523 22.5 29 22.5L13 22.5C12.4477 22.5 12 22.0523 12 21.5C12 20.9477 12.4477 20.5 13 20.5L29 20.5C29.5523 20.5 30 20.9477 30 21.5Z" fill="#667EEA"/>
</svg>
