<svg width="33" height="33" viewBox="0 0 33 33" fill="none" xmlns="http://www.w3.org/2000/svg">
<g clip-path="url(#clip0_269_1408)">
<path d="M16.5 33C25.6127 33 33 25.6127 33 16.5C33 7.3873 25.6127 0 16.5 0C7.3873 0 0 7.3873 0 16.5C0 25.6127 7.3873 33 16.5 33Z" fill="#8247E5"/>
<path d="M21.9615 12.9698C21.5657 12.7395 21.0512 12.7395 20.6159 12.9698L17.529 14.7349L15.4315 15.8861L12.3446 17.6512C11.9488 17.8814 11.4344 17.8814 10.999 17.6512L8.54532 16.2698C8.14957 16.0395 7.87255 15.6174 7.87255 15.157V12.4326C7.87255 11.9721 8.11 11.55 8.54532 11.3198L10.9594 9.97673C11.3552 9.7465 11.8697 9.7465 12.305 9.97673L14.7191 11.3198C15.1149 11.55 15.3919 11.9721 15.3919 12.4326V14.1977L17.4894 13.0081V11.243C17.4894 10.7826 17.252 10.3605 16.8167 10.1302L12.3446 7.59767C11.9488 7.36744 11.4344 7.36744 10.999 7.59767L6.44782 10.1302C6.01247 10.3605 5.77502 10.7826 5.77502 11.243V16.3465C5.77502 16.807 6.01247 17.2291 6.44782 17.4593L10.999 19.9918C11.3948 20.2221 11.9093 20.2221 12.3446 19.9918L15.4315 18.2651L17.529 17.0756L20.6159 15.3488C21.0116 15.1186 21.5261 15.1186 21.9615 15.3488L24.3756 16.6918C24.7713 16.9221 25.0484 17.3442 25.0484 17.8047V20.5291C25.0484 20.9895 24.8109 21.4116 24.3756 21.6418L21.9615 23.0233C21.5657 23.2535 21.0512 23.2535 20.6159 23.0233L18.2018 21.6802C17.806 21.45 17.529 21.0279 17.529 20.5674V18.8023L15.4315 19.9918V21.757C15.4315 22.2174 15.6689 22.6395 16.1043 22.8698L20.6555 25.4023C21.0512 25.6326 21.5657 25.6326 22.001 25.4023L26.5522 22.8698C26.948 22.6395 27.225 22.2174 27.225 21.757V16.6535C27.225 16.193 26.9876 15.7709 26.5522 15.5407L21.9615 12.9698Z" fill="white"/>
</g>
<defs>
<clipPath id="clip0_269_1408">
<rect width="33" height="33" fill="white"/>
</clipPath>
</defs>
</svg>
