<svg width="33" height="33" viewBox="0 0 33 33" fill="none" xmlns="http://www.w3.org/2000/svg">
<g clip-path="url(#clip0_167_1873)">
<path d="M16.5 33C25.6127 33 33 25.6127 33 16.5C33 7.3873 25.6127 0 16.5 0C7.3873 0 0 7.3873 0 16.5C0 25.6127 7.3873 33 16.5 33Z" fill="#8247E5"/>
<path d="M21.9613 12.9698C21.5656 12.7395 21.0511 12.7395 20.6158 12.9698L17.5289 14.7349L15.4314 15.8861L12.3445 17.6512C11.9487 17.8814 11.4342 17.8814 10.9989 17.6512L8.54519 16.2698C8.14945 16.0395 7.87243 15.6174 7.87243 15.157V12.4326C7.87243 11.9721 8.10988 11.55 8.54519 11.3198L10.9593 9.97673C11.3551 9.7465 11.8696 9.7465 12.3049 9.97673L14.719 11.3198C15.1148 11.55 15.3918 11.9721 15.3918 12.4326V14.1977L17.4893 13.0081V11.243C17.4893 10.7826 17.2518 10.3605 16.8165 10.1302L12.3445 7.59767C11.9487 7.36744 11.4342 7.36744 10.9989 7.59767L6.4477 10.1302C6.01235 10.3605 5.7749 10.7826 5.7749 11.243V16.3465C5.7749 16.807 6.01235 17.2291 6.4477 17.4593L10.9989 19.9918C11.3947 20.2221 11.9091 20.2221 12.3445 19.9918L15.4314 18.2651L17.5289 17.0756L20.6158 15.3488C21.0115 15.1186 21.526 15.1186 21.9613 15.3488L24.3755 16.6918C24.7712 16.9221 25.0483 17.3442 25.0483 17.8047V20.5291C25.0483 20.9895 24.8108 21.4116 24.3755 21.6418L21.9613 23.0233C21.5656 23.2535 21.0511 23.2535 20.6158 23.0233L18.2017 21.6802C17.8059 21.45 17.5289 21.0279 17.5289 20.5674V18.8023L15.4314 19.9918V21.757C15.4314 22.2174 15.6688 22.6395 16.1042 22.8698L20.6554 25.4023C21.0511 25.6326 21.5656 25.6326 22.0009 25.4023L26.5521 22.8698C26.9479 22.6395 27.2249 22.2174 27.2249 21.757V16.6535C27.2249 16.193 26.9875 15.7709 26.5521 15.5407L21.9613 12.9698Z" fill="white"/>
</g>
<defs>
<clipPath id="clip0_167_1873">
<rect width="33" height="33" fill="white"/>
</clipPath>
</defs>
</svg>
