<svg width="36" height="36" viewBox="0 0 36 36" fill="none" xmlns="http://www.w3.org/2000/svg">
<path fill-rule="evenodd" clip-rule="evenodd" d="M19.125 26.9941V33C19.125 33.6214 18.6213 34.125 18 34.125C17.3787 34.125 16.875 33.6214 16.875 33V26.9941H19.125Z" fill="#A6C0FE"/>
<path opacity="0.4" d="M4.5 7.5H31.5V24C31.5 25.6569 30.1569 27 28.5 27H7.5C5.84315 27 4.5 25.6569 4.5 24V7.5Z" fill="#A6C0FE"/>
<path d="M3 6C3 4.34315 4.34315 3 6 3H30C31.6569 3 33 4.34315 33 6C33 7.65685 31.6569 9 30 9H6C4.34315 9 3 7.65685 3 6Z" fill="#A6C0FE"/>
<path fill-rule="evenodd" clip-rule="evenodd" d="M24.579 14.0355C25.1118 14.3552 25.2845 15.0462 24.9648 15.579L23.3415 18.2846C21.9803 20.5532 18.7744 20.7688 17.1217 18.703C16.4485 17.8615 15.1426 17.9493 14.5882 18.8734L12.9648 21.579C12.6452 22.1118 11.9541 22.2845 11.4214 21.9648C10.8886 21.6452 10.7158 20.9541 11.0355 20.4214L12.6589 17.7157C14.02 15.4472 17.226 15.2315 18.8786 17.2974C19.5518 18.1389 20.8577 18.051 21.4121 17.127L23.0355 14.4214C23.3552 13.8886 24.0462 13.7158 24.579 14.0355Z" fill="#A6C0FE"/>
</svg>
