<svg width="25" height="25" viewBox="0 0 25 25" fill="none" xmlns="http://www.w3.org/2000/svg">
<path opacity="0.4" d="M5.75 4.25H15.75C18.5114 4.25 20.75 6.48858 20.75 9.25V19.25C20.75 22.0114 18.5114 24.25 15.75 24.25H5.75C2.98858 24.25 0.75 22.0114 0.75 19.25V9.25C0.75 6.48858 2.98858 4.25 5.75 4.25Z" fill="#667EEA"/>
<path fill-rule="evenodd" clip-rule="evenodd" d="M15.75 0.812501L23.25 0.8125C23.7678 0.8125 24.1875 1.23223 24.1875 1.75L24.1875 9.24999C24.1875 9.76776 23.7678 10.1875 23.25 10.1875C22.7322 10.1875 22.3125 9.76776 22.3125 9.24999L22.3125 4.01332L10.1629 16.1629C9.7968 16.529 9.2032 16.529 8.83709 16.1629C8.47097 15.7968 8.47097 15.2032 8.83709 14.8371L20.9867 2.6875L15.75 2.6875C15.2322 2.6875 14.8125 2.26777 14.8125 1.75C14.8125 1.23223 15.2322 0.812501 15.75 0.812501Z" fill="#667EEA"/>
</svg>
