<svg width="26" height="26" viewBox="0 0 26 26" fill="none" xmlns="http://www.w3.org/2000/svg">
<path opacity="0.4" d="M23.8333 13C23.8333 18.983 18.9831 23.8333 13 23.8333C7.01691 23.8333 2.16666 18.983 2.16666 13C2.16666 7.01688 7.01691 2.16663 13 2.16663C18.9831 2.16663 23.8333 7.01688 23.8333 13Z" fill="#B75738"/>
<path fill-rule="evenodd" clip-rule="evenodd" d="M15.4896 16.6386C15.8069 16.9559 16.3213 16.9559 16.6387 16.6386C16.956 16.3213 16.956 15.8068 16.6387 15.4895L14.1491 13L16.6386 10.5105C16.9559 10.1932 16.9559 9.67871 16.6386 9.36141C16.3213 9.04411 15.8069 9.04411 15.4896 9.36141L13.0001 11.8509L10.5104 9.36127C10.1931 9.04397 9.67864 9.04397 9.36134 9.36127C9.04404 9.67857 9.04404 10.193 9.36134 10.5103L11.851 13L9.36133 15.4897C9.04403 15.807 9.04403 16.3214 9.36133 16.6387C9.67863 16.956 10.1931 16.956 10.5104 16.6387L13.0001 14.149L15.4896 16.6386Z" fill="#B75738"/>
</svg>
