<svg width="36" height="36" viewBox="0 0 36 36" fill="none" xmlns="http://www.w3.org/2000/svg">
<g opacity="0.2">
<path opacity="0.4" d="M19.4318 4.5H16.5682C14.9866 4.5 13.7045 5.70883 13.7045 7.2C13.7045 8.90642 11.8787 9.99131 10.38 9.17545L10.2278 9.09259C8.85811 8.347 7.10673 8.78947 6.31596 10.0809L4.88414 12.4191C4.09336 13.7105 4.56264 15.3618 5.9323 16.1074C7.43177 16.9236 7.43176 19.0764 5.9323 19.8926C4.56264 20.6382 4.09336 22.2895 4.88413 23.5809L6.31596 25.9191C7.10673 27.2105 8.85811 27.653 10.2278 26.9074L10.38 26.8245C11.8787 26.0087 13.7045 27.0936 13.7045 28.8C13.7045 30.2912 14.9866 31.5 16.5682 31.5H19.4318C21.0134 31.5 22.2955 30.2912 22.2955 28.8C22.2955 27.0936 24.1213 26.0087 25.62 26.8245L25.7722 26.9074C27.1419 27.653 28.8933 27.2105 29.684 25.9191L31.1159 23.5809C31.9066 22.2895 31.4374 20.6382 30.0677 19.8926C28.5682 19.0764 28.5682 16.9236 30.0677 16.1074C31.4374 15.3618 31.9066 13.7105 31.1159 12.4191L29.684 10.0809C28.8933 8.78949 27.1419 8.34702 25.7722 9.09261L25.62 9.17547C24.1213 9.99132 22.2955 8.90643 22.2955 7.2C22.2955 5.70883 21.0134 4.5 19.4318 4.5Z" fill="#F8F7FA"/>
<circle cx="18" cy="18" r="4.5" fill="#F8F7FA"/>
</g>
</svg>
