<svg width="36" height="36" viewBox="0 0 36 36" fill="none" xmlns="http://www.w3.org/2000/svg">
<g opacity="0.2">
<path opacity="0.4" d="M31.5 27V10.5H4.5V27C4.5 30.3137 7.18629 33 10.5 33H25.5C28.8137 33 31.5 30.3137 31.5 27Z" fill="#F8F7FA"/>
<path fill-rule="evenodd" clip-rule="evenodd" d="M24.579 21.1605C25.1118 21.4802 25.2845 22.1712 24.9648 22.704L23.3415 25.4096C21.9803 27.6782 18.7744 27.8938 17.1217 25.828C16.4485 24.9865 15.1426 25.0743 14.5882 25.9984L12.9648 28.704C12.6452 29.2368 11.9541 29.4095 11.4214 29.0898C10.8886 28.7702 10.7158 28.0791 11.0355 27.5464L12.6589 24.8407C14.02 22.5722 17.226 22.3565 18.8786 24.4224C19.5518 25.2639 20.8577 25.176 21.4121 24.252L23.0355 21.5464C23.3552 21.0136 24.0462 20.8408 24.579 21.1605Z" fill="#F8F7FA"/>
<path d="M33 12.375V7C33 4.79086 31.2091 3 29 3H7C4.79086 3 3 4.79086 3 7V12.375C3 15.4816 5.23858 18 8 18C10.7614 18 13 15.4816 13 12.375C13 15.4816 15.2386 18 18 18C20.7614 18 23 15.4816 23 12.375C23 15.4816 25.2386 18 28 18C30.7614 18 33 15.4816 33 12.375Z" fill="#F8F7FA"/>
</g>
</svg>
