<svg width="12" height="12" viewBox="0 0 12 12" fill="none" xmlns="http://www.w3.org/2000/svg">
<path fill-rule="evenodd" clip-rule="evenodd" d="M6.81252 1.66669C6.81252 1.21796 6.44875 0.854187 6.00002 0.854187C5.55129 0.854187 5.18752 1.21796 5.18752 1.66669V5.18752H1.66669C1.21796 5.18752 0.854187 5.55129 0.854187 6.00002C0.854187 6.44875 1.21796 6.81252 1.66669 6.81252H5.18752V10.3334C5.18752 10.7821 5.55129 11.1459 6.00002 11.1459C6.44875 11.1459 6.81252 10.7821 6.81252 10.3334V6.81252H10.3334C10.7821 6.81252 11.1459 6.44875 11.1459 6.00002C11.1459 5.55129 10.7821 5.18752 10.3334 5.18752H6.81252V1.66669Z" fill="#F8F7FA"/>
</svg>
