<svg width="24" height="24" viewBox="0 0 24 24" fill="none" xmlns="http://www.w3.org/2000/svg">
<g clip-path="url(#clip0_98_10002)">
<path opacity="0.4" d="M0 2.88C0 1.28942 1.28942 0 2.88 0H16.32C17.9106 0 19.2 1.28942 19.2 2.88V16.32C19.2 17.9106 17.9106 19.2 16.32 19.2H2.88C1.28942 19.2 0 17.9106 0 16.32V2.88Z" fill="#667EEA"/>
<path d="M4.80005 7.67999C4.80005 6.08941 6.08947 4.79999 7.68005 4.79999H21.12C22.7106 4.79999 24 6.08941 24 7.67999V21.12C24 22.7106 22.7106 24 21.12 24H7.68005C6.08947 24 4.80005 22.7106 4.80005 21.12V7.67999Z" fill="#667EEA"/>
</g>
<defs>
<clipPath id="clip0_98_10002">
<rect width="24" height="24" fill="white"/>
</clipPath>
</defs>
</svg>
