<svg width="48" height="49" viewBox="0 0 48 49" fill="none" xmlns="http://www.w3.org/2000/svg">
<rect y="0.166668" width="48" height="48.6667" rx="8" fill="#667EEA"/>
<path opacity="0.4" d="M37.3333 16.1667H16C13.0545 16.1667 10.6667 18.5545 10.6667 21.5V32.1667C10.6667 35.1122 13.0545 37.5 16 37.5H32C34.9455 37.5 37.3333 35.1122 37.3333 32.1667V16.1667Z" fill="#F8F7FA"/>
<path d="M37.3333 16.1667C37.3333 13.2212 34.9455 10.8333 32 10.8333H24C21.0545 10.8333 18.6667 13.2212 18.6667 16.1667H37.3333Z" fill="#F8F7FA"/>
<path d="M10.6667 24.1667L10.6667 29.5L16 29.5C17.4727 29.5 18.6667 28.3061 18.6667 26.8333C18.6667 25.3606 17.4727 24.1667 16 24.1667L10.6667 24.1667Z" fill="#F8F7FA"/>
</svg>
