<svg width="36" height="36" viewBox="0 0 36 36" fill="none" xmlns="http://www.w3.org/2000/svg">
<g opacity="0.2">
<path opacity="0.4" fill-rule="evenodd" clip-rule="evenodd" d="M10.5 19.875C11.1213 19.875 11.625 20.3787 11.625 21V25.5C11.625 26.1213 11.1213 26.625 10.5 26.625C9.87868 26.625 9.375 26.1213 9.375 25.5V21C9.375 20.3787 9.87868 19.875 10.5 19.875Z" fill="#F8F7FA"/>
<path opacity="0.4" fill-rule="evenodd" clip-rule="evenodd" d="M16.5 16.875C17.1213 16.875 17.625 17.3787 17.625 18V25.5C17.625 26.1213 17.1213 26.625 16.5 26.625C15.8787 26.625 15.375 26.1213 15.375 25.5V18C15.375 17.3787 15.8787 16.875 16.5 16.875Z" fill="#F8F7FA"/>
<path opacity="0.4" fill-rule="evenodd" clip-rule="evenodd" d="M22.5 19.875C23.1213 19.875 23.625 20.3787 23.625 21V25.5C23.625 26.1213 23.1213 26.625 22.5 26.625C21.8787 26.625 21.375 26.1213 21.375 25.5V21C21.375 20.3787 21.8787 19.875 22.5 19.875Z" fill="#F8F7FA"/>
<path opacity="0.4" fill-rule="evenodd" clip-rule="evenodd" d="M28.5 16.875C29.1213 16.875 29.625 17.3787 29.625 18V25.5C29.625 26.1213 29.1213 26.625 28.5 26.625C27.8787 26.625 27.375 26.1213 27.375 25.5V18C27.375 17.3787 27.8787 16.875 28.5 16.875Z" fill="#F8F7FA"/>
<path fill-rule="evenodd" clip-rule="evenodd" d="M3 1.875C3.62132 1.875 4.125 2.37868 4.125 3V27C4.125 29.6924 6.30761 31.875 9 31.875H33C33.6213 31.875 34.125 32.3787 34.125 33C34.125 33.6213 33.6213 34.125 33 34.125H9C5.06497 34.125 1.875 30.935 1.875 27V3C1.875 2.37868 2.37868 1.875 3 1.875Z" fill="#F8F7FA"/>
<path fill-rule="evenodd" clip-rule="evenodd" d="M29.2955 8.2045C29.7348 8.64384 29.7348 9.35616 29.2955 9.7955L25.4168 13.6742C23.8059 15.2851 21.1941 15.2851 19.5832 13.6742L17.8258 11.9168C17.0936 11.1846 15.9064 11.1846 15.1742 11.9168L11.2955 15.7955C10.8562 16.2348 10.1438 16.2348 9.7045 15.7955C9.26517 15.3562 9.26517 14.6438 9.7045 14.2045L13.5832 10.3258C15.1941 8.71491 17.8059 8.71491 19.4168 10.3258L21.1742 12.0832C21.9064 12.8154 23.0936 12.8154 23.8258 12.0832L27.7045 8.2045C28.1438 7.76517 28.8562 7.76517 29.2955 8.2045Z" fill="#F8F7FA"/>
</g>
</svg>
